<svg id="Layer_1" data-name="Layer 1" xmlns="http://www.w3.org/2000/svg" viewBox="0 0 520 58.83"><defs><style>.cls-1{fill:#9fdd54;}.cls-2{fill:#3f1f77;}.cls-3{fill:red;}.cls-4{fill:#2d20e0;}.cls-5{fill:#f2d66a;}.cls-6{fill:#81785d;}.cls-7{fill:#ef6816;}.cls-8{fill:#9c50b5;}</style></defs><title>flixtreme</title><path id="path7261" class="cls-1" d="M10.87,71.62H27.51V51.45H55.33V38.59H10.87Zm0-58.83V25.64H55.33V12.79Z" transform="translate(-10.87 -12.79)"/><path id="path7263" class="cls-2" d="M68.37,12.79V71.62h44.72V58.42H85V12.79Z" transform="translate(-10.87 -12.79)"/><path id="path7265" class="cls-3" d="M123.09,12.79V71.62h16.64V12.79Z" transform="translate(-10.87 -12.79)"/><path id="path7267" class="cls-4" d="M173.14,19l-4.2-6.21H150.2l13,18.49Zm24.63,33.37L188,65l4.45,6.64h19.16Zm12.52-39.58h-18l-43,58.83h19Z" transform="translate(-10.87 -12.79)"/><path id="path7269" class="cls-5" d="M230.6,26V71.62h16.64V26h18V12.79h-52.7V26Z" transform="translate(-10.87 -12.79)"/><path id="path7271" class="cls-6" d="M316.45,53.13a20.38,20.38,0,0,0,8.49-7.4,20.47,20.47,0,0,0,3-11.18A21,21,0,0,0,324.77,23a21.25,21.25,0,0,0-9.08-7.57,33.81,33.81,0,0,0-13.87-2.68H274.93V25.9h25.89c3.36,0,6,.75,7.73,2.27a8.26,8.26,0,0,1,2.6,6.38,8.15,8.15,0,0,1-2.6,6.39c-1.77,1.51-4.37,2.19-7.73,2.19H274.93V71.62h16.64V56h9.08l10.67,15.64h17.82Z" transform="translate(-10.87 -12.79)"/><path id="path7273" class="cls-7" d="M387.29,12.79H340.65V25.64h46.64Zm0,22.77H340.65V48h46.64Zm-46.64,23.2V71.62h46.64V58.76Z" transform="translate(-10.87 -12.79)"/><path id="path7275" class="cls-8" d="M468.86,35.23,453.65,62.46l.08,9.16H469ZM400.61,71.62H416V63.46L400.61,36Zm54.55-58.83L435,46.74,414.31,12.79h-13.7L416,41.28,431,65.82h7.39l15.13-25.38,14.88-27.65Z" transform="translate(-10.87 -12.79)"/><path id="path7277" class="cls-3" d="M530.87,12.79H484.22V25.64h46.65Zm0,22.77H484.22V48h46.65Zm-46.65,23.2V71.62h46.65V58.76Z" transform="translate(-10.87 -12.79)"/></svg>
